<svg width="17" height="19" viewBox="0 0 17 19" fill="none" xmlns="http://www.w3.org/2000/svg">
<g clip-path="url(#clip0_1_24)">
<path fill-rule="evenodd" clip-rule="evenodd" d="M6.82466 1.45915C5.73005 2.02893 4.8348 2.51122 4.83553 2.53034C4.83627 2.58107 7.46171 3.91031 7.55513 3.90663C7.5978 3.90516 7.90529 3.764 8.23853 3.59197L8.84468 3.28024L9.50674 3.62064L10.1688 3.96104L11.2531 3.4736C12.8884 2.7406 13.0583 2.65973 13.0311 2.63253C12.9958 2.5965 12.4095 2.28184 10.8191 1.44518C10.0504 1.04082 9.30445 0.644549 9.161 0.563677C9.01755 0.48354 8.88146 0.418842 8.85719 0.420313C8.83291 0.421783 7.91927 0.88937 6.82466 1.45915ZM2.02471 3.94339L0.88523 4.53155V7.11284C0.88523 8.53251 0.899942 9.69413 0.918333 9.69413C0.936723 9.69413 1.49727 9.45151 2.16374 9.15449L3.37605 8.61485V5.89314L3.96823 6.21589C4.42505 6.46439 4.88114 6.71215 5.3387 6.95918L6.11625 7.38045L6.46273 7.22385C6.67974 7.12534 6.89675 7.02608 7.11302 6.9261C7.28001 6.84817 7.69049 6.66363 8.02446 6.51586C8.35843 6.36808 8.66813 6.21883 8.71153 6.18502C8.76965 6.14017 8.05904 5.74757 6.08388 4.73373C4.59498 3.96912 3.32824 3.34641 3.27012 3.34935C3.21201 3.35229 2.65146 3.6199 2.02471 3.94339ZM13.2371 4.10808C12.461 4.45803 11.8262 4.75873 11.8254 4.77564C11.8247 4.79255 12.2477 5.04399 12.7656 5.33365C13.2834 5.62332 13.7064 5.87623 13.7064 5.89535C13.7064 5.91446 13.2481 6.13576 12.6891 6.38793C12.1292 6.6401 10.7146 7.27826 9.545 7.80687L5.62633 9.57723C4.64059 10.0228 3.75196 10.4242 3.65191 10.4698C1.63851 11.3807 1.08532 11.6336 1.00881 11.677C0.93231 11.7203 0.91539 11.9747 0.901414 13.2481L0.883759 14.7685L1.9026 15.2875L2.92144 15.8066L4.33384 15.1692C5.11065 14.8185 5.74623 14.5134 5.74623 14.4913C5.74623 14.4692 5.60279 14.3751 5.42697 14.2832C5.25116 14.1913 4.88923 13.9877 4.6222 13.8311C4.35517 13.6745 4.08814 13.5304 4.03002 13.5113C3.97117 13.4922 3.92483 13.4591 3.92556 13.437C3.9263 13.4157 4.54864 13.1202 5.3078 12.7805C6.78273 12.1218 7.91117 11.6137 10.3336 10.519C11.4172 10.0294 12.5007 9.54047 13.5843 9.05156C14.5369 8.6222 15.6441 8.12006 16.045 7.93626L16.774 7.60248L16.7902 6.06591L16.8063 4.52935L15.7728 3.99853C15.2042 3.70739 14.7186 3.46919 14.6929 3.46992C14.6679 3.47066 14.0124 3.75812 13.2371 4.10808ZM16.4974 9.65148C16.3451 9.72574 16.0442 9.86469 15.8287 9.961C15.6132 10.0566 15.2049 10.2411 14.9209 10.3705L14.4045 10.6058L14.3928 11.9549C14.3861 12.6967 14.3589 13.3003 14.3317 13.2966C14.2706 13.2878 13.3026 12.7915 12.3293 12.2703C11.6268 11.8946 11.5827 11.8791 11.4179 11.9607C11.3223 12.0078 10.7522 12.2636 10.1511 12.5291C9.54941 12.7945 9.03815 13.0283 9.01387 13.0496C8.9896 13.0709 10.2004 13.7267 11.7041 14.5067L14.4376 15.9257L15.6058 15.3221C16.248 14.9898 16.7946 14.6869 16.8196 14.6494C16.8762 14.5634 16.8711 9.50518 16.8144 9.5118C16.7924 9.514 16.6497 9.57723 16.4974 9.65148ZM10.0298 15.589C9.82748 15.6757 9.62444 15.7632 9.42215 15.8507C8.81084 16.1154 8.93075 16.1242 8.20322 15.7617C7.71844 15.5206 7.51026 15.4463 7.41904 15.4824C7.35136 15.5096 6.76581 15.7728 6.11846 16.0668C5.47111 16.3617 4.91939 16.6021 4.89144 16.6021C4.61999 16.6021 5.07167 16.8719 6.81362 17.7497L8.85645 18.7797L9.7164 18.3555C10.1894 18.1225 11.1428 17.6549 11.8357 17.3174C12.5287 16.98 13.087 16.6947 13.076 16.6837C13.0657 16.6726 12.4853 16.3749 11.7857 16.022L10.5145 15.3794L10.0298 15.589Z" fill="#222222" stroke="#222222" stroke-width="0.00735624"/>
</g>
<defs>
<clipPath id="clip0_1_24">
<rect width="16" height="18.38" fill="white" transform="translate(0.880005 0.410034)"/>
</clipPath>
</defs>
</svg>
