<svg width="17" height="17" viewBox="0 0 17 17" fill="none" xmlns="http://www.w3.org/2000/svg">
<g clip-path="url(#clip0_1_20)">
<path fill-rule="evenodd" clip-rule="evenodd" d="M3.96039 8.1965C3.96039 7.82108 4.26517 7.51639 4.63525 7.51639C4.63525 7.51639 4.63525 7.51639 4.64069 7.51639L5.76728 7.52183C6.1428 7.52183 6.44758 7.82652 6.44758 8.20194V12.4676C6.57275 12.4295 6.73603 12.3915 6.91563 12.3479C7.17142 12.2881 7.35102 12.0596 7.35102 11.7984V6.50437C7.35102 6.12895 7.6558 5.82426 8.03132 5.82426H9.16335C9.53888 5.82426 9.84365 6.12895 9.84365 6.50437V11.4175C9.84365 11.4175 10.1267 11.3033 10.4042 11.189C10.611 11.102 10.7471 10.8952 10.7525 10.6667V4.81225C10.7525 4.43682 11.0573 4.13213 11.4328 4.13213H12.554C12.9295 4.13213 13.2343 4.43682 13.2343 4.81225V9.63291C14.2139 8.92014 15.2099 8.06592 15.999 7.04303C16.2331 6.73833 16.2984 6.34115 16.1732 5.98204C15.0738 2.79366 12.0968 0.639056 8.72795 0.590087C4.29782 0.530237 0.63507 4.14845 0.63507 8.57737C0.629627 9.98113 0.99427 11.3577 1.69634 12.5764C1.89227 12.9138 2.2678 13.1097 2.65965 13.077C2.87191 13.0607 3.13858 13.0335 3.45425 12.9954C3.73725 12.9628 3.95495 12.7234 3.95495 12.435L3.96039 8.1965Z" fill="#222222" stroke="#222222" stroke-width="0.0544242"/>
<path fill-rule="evenodd" clip-rule="evenodd" d="M3.9332 15.0412C7.50343 17.6366 12.4996 16.8476 15.0956 13.2784C16.0916 11.9127 16.6249 10.2695 16.6249 8.57742C16.6249 8.39243 16.614 8.21288 16.6032 8.03333C13.6806 12.3861 8.29258 14.421 3.9332 15.0412Z" fill="#222222" stroke="#222222" stroke-width="0.0544242"/>
</g>
<defs>
<clipPath id="clip0_1_20">
<rect width="16" height="15.98" fill="white" transform="translate(0.630005 0.590088)"/>
</clipPath>
</defs>
</svg>
