<svg width="17" height="14" viewBox="0 0 17 14" fill="none" xmlns="http://www.w3.org/2000/svg">
<path d="M14.8238 3.34009C14.8238 3.49634 14.8238 3.62134 14.8238 3.77759C14.8238 8.12134 11.5425 13.0901 5.51126 13.0901C3.63626 13.0901 1.91751 12.5588 0.480005 11.6213C0.730005 11.6526 0.980005 11.6838 1.26126 11.6838C2.79251 11.6838 4.19876 11.1526 5.32376 10.2776C3.88626 10.2463 2.66751 9.30884 2.26126 7.99634C2.48001 8.02759 2.66751 8.05884 2.88626 8.05884C3.16751 8.05884 3.48001 7.99634 3.73001 7.93384C2.23001 7.62134 1.10501 6.30884 1.10501 4.71509V4.68384C1.54251 4.93384 2.07376 5.05884 2.60501 5.09009C1.69876 4.49634 1.13626 3.49634 1.13626 2.37134C1.13626 1.74634 1.29251 1.18384 1.57376 0.715088C3.19876 2.68384 5.63626 3.99634 8.35501 4.15259C8.29251 3.90259 8.26126 3.65259 8.26126 3.40259C8.26126 1.59009 9.73001 0.121338 11.5425 0.121338C12.48 0.121338 13.3238 0.496338 13.9488 1.15259C14.6675 0.996338 15.3863 0.715088 16.0113 0.340088C15.7613 1.12134 15.2613 1.74634 14.5738 2.15259C15.23 2.09009 15.8863 1.90259 16.4488 1.65259C16.0113 2.30884 15.4488 2.87134 14.8238 3.34009Z" fill="#222222"/>
</svg>
